/* XPM */
static char *_7959d9bd6c94490b5777fda4e9421a88qm7dvF0cU5AqIUn[] = {
/* columns rows colors chars-per-pixel */
"24 24 2 1 ",
"  c None",
". c #CC0000",
/* pixels */
"                        ",
"              ..        ",
"               ..       ",
"                ..      ",
"        .....    ..     ",
"       ......    ...    ",
"      ......      ..    ",
"     ......       ...   ",
"    ......         ..   ",
"   ........        ...  ",
"   ..... ...       ...  ",
"    ...   ...      ...  ",
"           ...     ...  ",
"            ...    ...  ",
"             ...  ....  ",
"              ........  ",
"      ..       ......   ",
"     .....     ......   ",
"    .................   ",
"   ...   .............  ",
" ....     ....... ..... ",
"....               .....",
"....                ....",
"...                  ..."
};
